<svg width="200" height="108" viewBox="0 0 200 108" fill="none" xmlns="http://www.w3.org/2000/svg">
<rect width="200" height="108" rx="8" fill="#F1F1F1"/>
<path d="M69.997 19.1157C70.0076 17.7435 69.4182 15.4546 70.9428 15C71.4379 15.0129 71.7415 15.2477 72.0529 15.6158C72.0862 16.7788 72.0543 17.9518 72.0529 19.1157C73.5101 19.1314 74.9696 19.1131 76.4272 19.1123C77.1874 19.1117 79.0153 18.7754 79.1754 19.8718C79.3377 20.9842 79.231 22.461 79.2312 23.6061L79.2296 30.9689H84.6236L84.6173 28.1099C84.6123 27.4775 84.5389 26.7663 84.66 26.1467C84.8159 25.3494 85.8032 25.0416 86.3803 25.6524C86.853 26.1529 86.667 27.3253 86.666 27.9466L86.6603 30.9689H91.2574L91.2542 26.5617C91.254 25.8733 91.0484 24.2234 91.4735 23.6479C92.0204 22.9077 93.1835 23.23 93.3283 24.1057C93.447 24.8245 93.3714 25.6326 93.3712 26.3638L93.367 30.9689L108.738 30.9653C112.257 30.9611 111.721 30.9871 111.72 34.2231L111.716 39.1919C113.546 37.8866 115.327 36.482 117.117 35.1199C119.221 33.5185 118.723 33.3561 121.389 33.3917L121.387 28.2383C121.388 24.5348 120.594 24.3449 123.992 24.3532L131.439 24.355C132.633 24.3472 134.152 23.8902 134.262 25.3782C134.33 26.2894 134.278 27.2399 134.278 28.156L134.274 33.3917C135.738 33.3897 139.207 32.7709 139.754 34.1267C139.656 35.0094 139.267 35.8271 138.965 36.6525L134.815 47.9675C133.221 52.3052 132.774 54.0063 128.947 56.9744C130.33 57.2079 131.576 57.7475 132.914 58.1321C134.255 58.2121 135.47 58.1099 136.732 57.6499C137.401 57.4064 138.277 56.8811 138.999 56.9909C140.007 57.1444 140.081 58.372 139.302 58.8626C137.277 60.1372 134.275 60.5523 131.991 59.9929C127.965 59.0064 127.76 58.2166 123.76 59.8574C118.753 61.9116 117.049 58.6778 113.156 58.7997C111.46 58.8528 110.93 59.389 109.449 59.9183C104.836 61.5683 103.051 58.6675 99.5138 58.7576C96.9852 58.8219 95.6706 60.465 92.7159 60.3791C90.1798 60.3056 88.8818 58.8562 86.0443 58.9201C84.2409 58.9608 83.3816 59.7014 81.7818 60.1802C77.2908 61.5239 75.7693 58.8693 72.5323 58.8796C68.7365 58.8915 67.966 61.1381 62.9636 59.9256C62.1714 59.7335 60.2894 59.2321 59.8647 58.4863C59.5659 57.9618 59.8226 57.2048 60.3775 56.9672C61.3624 56.5451 64.5043 59.2495 68.4934 57.5437C64.1447 54.5641 62.7765 49.5485 61.0887 44.8603C60.7103 43.8095 60.2178 42.7564 59.9141 41.6854C59.3797 39.7998 61.3444 40.1038 62.5989 40.0893C62.6521 38.4676 62.6001 36.8271 62.6002 35.2034L62.5928 21.9104C62.5863 18.8672 62.4253 19.1139 65.6923 19.1133L69.997 19.1157ZM64.7218 21.244V40.0893H77.1382V21.244H64.7218ZM123.519 26.4521V33.3917C126.401 33.3921 129.289 33.4329 132.171 33.3917C132.251 31.0947 132.205 28.7505 132.171 26.4521C129.288 26.4188 126.402 26.4523 123.519 26.4521ZM93.1362 33.0769H90.1078V40.0893H95.8101H98.8712V33.0769H93.1362ZM106.098 33.0769H100.988V40.0893H104.629H109.641V33.0769C108.461 33.0505 107.279 33.0795 106.098 33.0769ZM79.2296 33.0769V40.0893H88.0256V33.0769H79.2296ZM120.61 35.4723C118.947 35.6559 112.797 41.8683 111.221 42.1688C110.404 42.3249 108.101 42.2142 107.127 42.2138L62.3465 42.2148C62.9982 44.1338 63.721 46.1118 64.4821 47.9911L107.969 47.9947C108.852 47.9871 110.911 47.6408 110.864 49.0385C110.813 50.55 108.122 50.071 107.064 50.071H84.4208H65.2968C66.3843 52.6319 68.3874 55.5351 70.9428 56.7339C72.1382 56.8109 73.3255 56.6938 74.5057 56.9627C76.4583 57.4078 77.2483 58.3857 79.4604 58.3268C82.2259 58.2535 83.4026 56.5273 87.1943 56.7668C89.3192 56.901 90.694 58.2764 93.1487 58.221C94.6781 58.1865 95.4866 57.5399 96.8428 57.0714C99.2632 56.235 101.516 56.5779 103.738 57.6459C108.558 59.9627 111.017 55.1953 116.302 57.0629C118.316 57.7747 118.673 58.6238 121.25 58.2607C124.638 57.7838 129.29 54.7909 131.059 51.7037C131.602 50.7556 131.938 49.6616 132.319 48.639L134.189 43.4856C135.139 40.81 136.218 38.1688 137.109 35.4723H120.61Z" fill="#07598F"/>
<path d="M73.4072 26.452C71.9655 26.7874 71.6742 24.9641 72.9599 24.5301C74.3326 24.3616 74.7616 26.1452 73.4072 26.452Z" fill="#07598F"/>
<path d="M68.7363 26.4531C67.378 26.9811 66.8971 25.1171 68.1747 24.5313C69.559 24.3938 70.0911 26.0403 68.7363 26.4531Z" fill="#07598F"/>
<path d="M122.969 50.0708C121.35 50.2774 116.971 50.1413 115.291 50.0665C113.974 50.0077 113.476 48.495 114.782 47.9909C116.438 47.786 120.839 47.9106 122.555 47.9818C123.981 48.041 124.155 49.5307 122.969 50.0708Z" fill="#07598F"/>
<path d="M44.3452 84.5582V69.1304H51.0894C52.7644 69.1304 54.2337 69.4537 55.4973 70.1002C56.7609 70.7467 57.7453 71.6429 58.4506 72.789C59.1559 73.9351 59.5085 75.2868 59.5085 76.8443C59.5085 78.3871 59.1559 79.7388 58.4506 80.8996C57.7453 82.0456 56.7609 82.9419 55.4973 83.5884C54.2337 84.2349 52.7644 84.5582 51.0894 84.5582H44.3452ZM47.2104 82.1338H50.9571C52.1179 82.1338 53.117 81.9134 53.9545 81.4726C54.8067 81.0318 55.4605 80.4147 55.916 79.6213C56.3862 78.8279 56.6213 77.9022 56.6213 76.8443C56.6213 75.7717 56.3862 74.846 55.916 74.0673C55.4605 73.2739 54.8067 72.6568 53.9545 72.216C53.117 71.7752 52.1179 71.5548 50.9571 71.5548H47.2104V82.1338ZM67.3364 84.7124C66.1315 84.7124 65.0589 84.4553 64.1186 83.9411C63.1782 83.4121 62.4362 82.6921 61.8926 81.7812C61.3489 80.8702 61.0771 79.8343 61.0771 78.6736C61.0771 77.4981 61.3489 76.4623 61.8926 75.566C62.4362 74.655 63.1782 73.9424 64.1186 73.4282C65.0589 72.9139 66.1315 72.6568 67.3364 72.6568C68.5559 72.6568 69.6358 72.9139 70.5762 73.4282C71.5312 73.9424 72.2732 74.6477 72.8022 75.544C73.3458 76.4402 73.6176 77.4834 73.6176 78.6736C73.6176 79.8343 73.3458 80.8702 72.8022 81.7812C72.2732 82.6921 71.5312 83.4121 70.5762 83.9411C69.6358 84.4553 68.5559 84.7124 67.3364 84.7124ZM67.3364 82.3542C68.0122 82.3542 68.6146 82.2073 69.1436 81.9134C69.6726 81.6195 70.084 81.1934 70.3778 80.6351C70.6864 80.0768 70.8407 79.4229 70.8407 78.6736C70.8407 77.9095 70.6864 77.2557 70.3778 76.7121C70.084 76.1537 69.6726 75.7276 69.1436 75.4338C68.6146 75.1399 68.0196 74.993 67.3584 74.993C66.6825 74.993 66.0801 75.1399 65.5511 75.4338C65.0369 75.7276 64.6255 76.1537 64.3169 76.7121C64.0084 77.2557 63.8541 77.9095 63.8541 78.6736C63.8541 79.4229 64.0084 80.0768 64.3169 80.6351C64.6255 81.1934 65.0369 81.6195 65.5511 81.9134C66.0801 82.2073 66.6752 82.3542 67.3364 82.3542ZM81.4093 84.7124C80.1751 84.7124 79.0731 84.4553 78.1034 83.9411C77.1483 83.4121 76.399 82.6921 75.8554 81.7812C75.3117 80.8702 75.0399 79.8343 75.0399 78.6736C75.0399 77.4981 75.3117 76.4623 75.8554 75.566C76.399 74.655 77.1483 73.9424 78.1034 73.4282C79.0731 72.9139 80.1751 72.6568 81.4093 72.6568C82.5554 72.6568 83.5619 72.8919 84.4288 73.362C85.3104 73.8175 85.9789 74.4934 86.4344 75.3897L84.3186 76.6239C83.9659 76.0656 83.5325 75.6542 83.0182 75.3897C82.5187 75.1252 81.975 74.993 81.3873 74.993C80.7114 74.993 80.1017 75.1399 79.558 75.4338C79.0144 75.7276 78.5883 76.1537 78.2797 76.7121C77.9712 77.2557 77.8169 77.9095 77.8169 78.6736C77.8169 79.4376 77.9712 80.0988 78.2797 80.6572C78.5883 81.2008 79.0144 81.6195 79.558 81.9134C80.1017 82.2073 80.7114 82.3542 81.3873 82.3542C81.975 82.3542 82.5187 82.222 83.0182 81.9575C83.5325 81.693 83.9659 81.2816 84.3186 80.7233L86.4344 81.9575C85.9789 82.8391 85.3104 83.5223 84.4288 84.0072C83.5619 84.4774 82.5554 84.7124 81.4093 84.7124ZM90.7139 81.9355L90.78 78.4752L96.929 72.789H100.235L95.0116 78.0344L93.557 79.2466L90.7139 81.9355ZM88.4658 84.5582V68.2048H91.2208V84.5582H88.4658ZM97.3478 84.5582L93.0501 79.2466L94.7912 77.0427L100.698 84.5582H97.3478ZM102.499 84.5582V69.1304H109.244C110.919 69.1304 112.388 69.4537 113.651 70.1002C114.915 70.7467 115.899 71.6429 116.605 72.789C117.31 73.9351 117.663 75.2868 117.663 76.8443C117.663 78.3871 117.31 79.7388 116.605 80.8996C115.899 82.0456 114.915 82.9419 113.651 83.5884C112.388 84.2349 110.919 84.5582 109.244 84.5582H102.499ZM105.365 82.1338H109.111C110.272 82.1338 111.271 81.9134 112.109 81.4726C112.961 81.0318 113.615 80.4147 114.07 79.6213C114.54 78.8279 114.775 77.9022 114.775 76.8443C114.775 75.7717 114.54 74.846 114.07 74.0673C113.615 73.2739 112.961 72.6568 112.109 72.216C111.271 71.7752 110.272 71.5548 109.111 71.5548H105.365V82.1338ZM127.452 84.5582V82.1779L127.298 81.671V77.5055C127.298 76.6974 127.055 76.0729 126.57 75.6321C126.086 75.1766 125.351 74.9489 124.366 74.9489C123.705 74.9489 123.051 75.0517 122.405 75.2574C121.773 75.4631 121.237 75.7497 120.796 76.117L119.716 74.1114C120.348 73.6265 121.097 73.2665 121.964 73.0314C122.846 72.7817 123.757 72.6568 124.697 72.6568C126.401 72.6568 127.717 73.0682 128.642 73.891C129.583 74.6991 130.053 75.9554 130.053 77.6598V84.5582H127.452ZM123.749 84.7124C122.868 84.7124 122.096 84.5655 121.435 84.2717C120.774 83.9631 120.26 83.5443 119.892 83.0154C119.54 82.4717 119.363 81.862 119.363 81.1861C119.363 80.5249 119.518 79.9298 119.826 79.4009C120.15 78.8719 120.671 78.4532 121.391 78.1446C122.111 77.8361 123.066 77.6818 124.256 77.6818H127.672V79.5111H124.455C123.514 79.5111 122.882 79.6654 122.559 79.9739C122.236 80.2678 122.074 80.6351 122.074 81.0759C122.074 81.5755 122.273 81.9722 122.669 82.266C123.066 82.5599 123.617 82.7068 124.322 82.7068C124.998 82.7068 125.601 82.5526 126.13 82.244C126.673 81.9355 127.063 81.48 127.298 80.8775L127.761 82.5305C127.496 83.2211 127.019 83.7574 126.328 84.1394C125.652 84.5214 124.793 84.7124 123.749 84.7124ZM136.982 84.7124C135.998 84.7124 135.05 84.5876 134.139 84.3378C133.243 84.0733 132.53 83.7574 132.001 83.3901L133.059 81.2963C133.588 81.6342 134.22 81.9134 134.955 82.1338C135.689 82.3542 136.424 82.4644 137.159 82.4644C138.026 82.4644 138.65 82.3469 139.032 82.1118C139.429 81.8767 139.627 81.5608 139.627 81.1641C139.627 80.8408 139.495 80.5984 139.23 80.4368C138.966 80.2604 138.621 80.1282 138.195 80.04C137.769 79.9519 137.291 79.8711 136.762 79.7976C136.248 79.7241 135.726 79.6286 135.197 79.5111C134.683 79.3789 134.213 79.1952 133.787 78.9601C133.361 78.7103 133.015 78.3797 132.751 77.9683C132.486 77.5569 132.354 77.0133 132.354 76.3374C132.354 75.588 132.567 74.9415 132.993 74.3979C133.419 73.8396 134.014 73.4135 134.778 73.1196C135.557 72.811 136.476 72.6568 137.533 72.6568C138.327 72.6568 139.128 72.7449 139.936 72.9212C140.744 73.0976 141.412 73.3473 141.941 73.6706L140.883 75.7644C140.325 75.4264 139.759 75.1987 139.186 75.0811C138.628 74.9489 138.07 74.8828 137.511 74.8828C136.674 74.8828 136.049 75.0077 135.638 75.2574C135.241 75.5072 135.043 75.8231 135.043 76.2051C135.043 76.5578 135.175 76.8223 135.44 76.9986C135.704 77.1749 136.049 77.3145 136.476 77.4173C136.902 77.5202 137.372 77.6083 137.886 77.6818C138.415 77.7406 138.937 77.8361 139.451 77.9683C139.965 78.1006 140.435 78.2842 140.861 78.5193C141.302 78.7397 141.655 79.0556 141.919 79.467C142.184 79.8784 142.316 80.4147 142.316 81.0759C142.316 81.8106 142.096 82.4497 141.655 82.9934C141.229 83.537 140.619 83.9631 139.826 84.2717C139.032 84.5655 138.084 84.7124 136.982 84.7124ZM151.124 72.6568C152.065 72.6568 152.902 72.8404 153.637 73.2078C154.386 73.5751 154.974 74.1408 155.4 74.9048C155.826 75.6542 156.039 76.6239 156.039 77.814V84.5582H153.284V78.1667C153.284 77.1235 153.034 76.3447 152.535 75.8305C152.05 75.3162 151.367 75.0591 150.485 75.0591C149.838 75.0591 149.265 75.1913 148.766 75.4558C148.266 75.7203 147.877 76.117 147.598 76.6459C147.333 77.1602 147.201 77.814 147.201 78.6075V84.5582H144.446V68.2048H147.201V75.9627L146.606 74.993C147.017 74.2436 147.612 73.6706 148.391 73.2739C149.185 72.8625 150.096 72.6568 151.124 72.6568Z" fill="#07598F"/>
</svg>
